<svg width="40" height="40" viewBox="0 0 40 40" fill="none" xmlns="http://www.w3.org/2000/svg">
<path d="M13.6834 28.8668L11.6667 28.0001C11.9683 28.6179 12.4427 29.1349 13.0324 29.4882C13.622 29.8416 14.3016 30.0161 14.9886 29.9906C15.6756 29.9652 16.3404 29.7408 16.9023 29.3447C17.4642 28.9487 17.899 28.398 18.1539 27.7596C18.4089 27.1211 18.4729 26.4224 18.3384 25.7483C18.2039 25.0741 17.8765 24.4535 17.396 23.9619C16.9155 23.4702 16.3026 23.1286 15.6318 22.9786C14.9609 22.8286 14.2609 22.8766 13.6167 23.1168L15.7501 24.0001C16.3954 24.2698 16.9073 24.7847 17.1729 25.4317C17.4386 26.0787 17.4364 26.8048 17.1667 27.4501C16.8971 28.0955 16.3822 28.6073 15.7351 28.873C15.0881 29.1387 14.3621 29.1364 13.7167 28.8668H13.6834Z" fill="white"/>
<path d="M19.9999 3.33329C15.7638 3.32406 11.6831 4.92822 8.58727 7.81972C5.49145 10.7112 3.61283 14.6731 3.33325 18.9L12.2999 22.5833C12.5449 22.4205 12.8077 22.2863 13.0833 22.1833C13.6876 21.9238 14.3428 21.8041 14.9999 21.8333L19.0666 15.9C19.0666 14.6473 19.438 13.4229 20.1339 12.3813C20.8299 11.3398 21.819 10.5281 22.9763 10.0487C24.1335 9.56937 25.4069 9.44395 26.6355 9.68832C27.864 9.93269 28.9925 10.5359 29.8783 11.4216C30.764 12.3073 31.3672 13.4358 31.6116 14.6644C31.8559 15.8929 31.7305 17.1664 31.2512 18.3236C30.7718 19.4809 29.96 20.47 28.9185 21.1659C27.877 21.8619 26.6525 22.2333 25.3999 22.2333H25.2666L19.4166 26.4C19.4432 27.544 19.0441 28.6571 18.2965 29.5235C17.5489 30.3898 16.5063 30.9477 15.3707 31.0889C14.2351 31.23 13.0876 30.9444 12.1507 30.2875C11.2137 29.6305 10.5542 28.649 10.2999 27.5333L4.01659 24.8666C4.91727 27.8167 6.61895 30.459 8.93222 32.4993C11.2455 34.5396 14.0796 35.898 17.119 36.4232C20.1585 36.9484 23.2841 36.6198 26.1479 35.474C29.0117 34.3283 31.5014 32.4103 33.3398 29.9335C35.1782 27.4567 36.2932 24.5184 36.5607 21.4455C36.8283 18.3726 36.2378 15.2858 34.8551 12.5285C33.4724 9.77133 31.3516 7.45191 28.7289 5.82847C26.1062 4.20503 23.0844 3.34126 19.9999 3.33329Z" fill="white"/>
<path d="M29.6501 15.8333C29.66 14.9973 29.4211 14.1772 28.9639 13.4772C28.5066 12.7772 27.8516 12.229 27.082 11.9022C26.3124 11.5753 25.4631 11.4847 24.6419 11.6417C23.8206 11.7987 23.0646 12.1963 22.4699 12.784C21.8752 13.3716 21.4686 14.1228 21.3018 14.9421C21.135 15.7614 21.2155 16.6118 21.5332 17.3852C21.8508 18.1586 22.3912 18.8201 23.0856 19.2857C23.7801 19.7513 24.5973 19.9999 25.4334 20C26.5418 19.9958 27.6044 19.557 28.3928 18.7779C29.1812 17.9988 29.6326 16.9416 29.6501 15.8333ZM22.2834 15.8333C22.2867 15.2077 22.4752 14.5971 22.8252 14.0786C23.1751 13.56 23.6708 13.1567 24.2498 12.9196C24.8287 12.6825 25.4648 12.6221 26.078 12.7462C26.6912 12.8703 27.2539 13.1732 27.6951 13.6167C28.1363 14.0602 28.4362 14.6245 28.5571 15.2383C28.6779 15.8521 28.6142 16.488 28.3741 17.0656C28.1339 17.6433 27.728 18.1369 27.2076 18.4841C26.6873 18.8313 26.0757 19.0166 25.4501 19.0167C25.0314 19.0167 24.6169 18.9337 24.2305 18.7725C23.8441 18.6112 23.4935 18.375 23.199 18.0774C22.9045 17.7798 22.672 17.4268 22.5148 17.0387C22.3577 16.6507 22.279 16.2353 22.2834 15.8167V15.8333Z" fill="white"/>
</svg>
